<svg xmlns="http://www.w3.org/2000/svg" fill="none" viewBox="0 0 512 512">
  <style>
    path {
      fill: #3a305d;
    }
    @media (prefers-color-scheme: dark) {
      path {
        fill: #d9d9d9;
      }
    }
  </style>
  <path
    d="M76.907 4.865a16.853 16.853 0 0 1 16.853 0l57.047 32.936a16.853 16.853 0 0 1 8.427 14.596v65.873a16.851 16.851 0 0 1-8.427 14.595L93.76 165.802a16.856 16.856 0 0 1-16.853 0l-57.048-32.937a16.852 16.852 0 0 1-8.427-14.595V52.397a16.853 16.853 0 0 1 8.427-14.596L76.907 4.865ZM247.573 4.865a16.855 16.855 0 0 1 16.854 0l57.047 32.936a16.853 16.853 0 0 1 8.427 14.596v65.873a16.851 16.851 0 0 1-8.427 14.595l-57.047 32.937a16.857 16.857 0 0 1-16.854 0l-57.047-32.937a16.851 16.851 0 0 1-8.427-14.595V52.397a16.853 16.853 0 0 1 8.427-14.596l57.047-32.936ZM162.24 175.532a16.85 16.85 0 0 1 16.853 0l57.048 32.936a16.854 16.854 0 0 1 8.426 14.596v65.872a16.854 16.854 0 0 1-8.426 14.596l-57.048 32.936a16.85 16.85 0 0 1-16.853 0l-57.048-32.936a16.854 16.854 0 0 1-8.426-14.596v-65.872a16.855 16.855 0 0 1 8.426-14.596l57.048-32.936ZM418.24 4.865a16.853 16.853 0 0 1 16.853 0l57.048 32.936a16.855 16.855 0 0 1 8.427 14.596v65.873a16.853 16.853 0 0 1-8.427 14.595l-57.048 32.937a16.855 16.855 0 0 1-16.853 0l-57.047-32.937a16.851 16.851 0 0 1-8.427-14.595V52.397a16.853 16.853 0 0 1 8.427-14.596L418.24 4.865ZM332.907 175.532a16.85 16.85 0 0 1 16.853 0l57.047 32.936a16.853 16.853 0 0 1 8.427 14.596v65.872a16.853 16.853 0 0 1-8.427 14.596l-57.047 32.936a16.85 16.85 0 0 1-16.853 0l-57.048-32.936a16.854 16.854 0 0 1-8.426-14.596v-65.872a16.855 16.855 0 0 1 8.426-14.596l57.048-32.936ZM247.573 346.198a16.857 16.857 0 0 1 16.854 0l57.047 32.937a16.851 16.851 0 0 1 8.427 14.595v65.873a16.851 16.851 0 0 1-8.427 14.595l-57.047 32.937a16.857 16.857 0 0 1-16.854 0l-57.047-32.937a16.851 16.851 0 0 1-8.427-14.595V393.73a16.851 16.851 0 0 1 8.427-14.595l57.047-32.937Z"
  />
</svg>
